<svg width="78" height="75" viewBox="0 0 78 75" fill="none" xmlns="http://www.w3.org/2000/svg">
    <path d="M60.6207 3.75437H17.1724C16.6011 3.75437 16.1379 4.21752 16.1379 4.78885V20.4095H12.4138V4.78885C12.4138 2.16074 14.5443 0.0302331 17.1724 0.0302331H60.6207C63.2488 0.0302331 65.3793 -0.425582 65.3793 2.20253V20.4094L61.6552 20.4095V4.78885C61.6552 4.21752 61.192 3.75437 60.6207 3.75437Z" fill="#FEF9EF"/>
    <path d="M16.1379 39.1336V69.3405C16.1379 69.9118 16.6011 70.3749 17.1724 70.3749H60.6207C61.192 70.3749 61.6552 69.9118 61.6552 69.3405V39.1336H65.3793V69.3405C65.3793 71.9686 63.2488 74.0991 60.6207 74.0991H17.1724C14.5443 74.0991 12.4138 71.9686 12.4138 69.3405V39.1336H16.1379Z" fill="#FEF9EF"/>
    <path d="M73.2414 22.168H4.75862C4.18729 22.168 3.72414 22.6312 3.72414 23.2025V54.4439C3.72414 55.0152 4.18729 55.4784 4.75862 55.4784H14.2759V59.2025H4.75862C2.13051 59.2025 0 57.072 0 54.4439V23.2025C0 20.5744 2.13051 18.4439 4.75862 18.4439H73.2414C75.8695 18.4439 78 20.5744 78 23.2025V54.4439C78 57.072 75.8695 59.2025 73.2414 59.2025H63.8276V55.4784H73.2414C73.8127 55.4784 74.2759 55.0152 74.2759 54.4439V23.2025C74.2759 22.6312 73.8127 22.168 73.2414 22.168Z" fill="#FEF9EF"/>
    <path fill-rule="evenodd" clip-rule="evenodd" d="M22.6552 46.3749C22.6552 45.6322 23.2573 45.0301 24 45.0301H54C54.7427 45.0301 55.3448 45.6322 55.3448 46.3749C55.3448 47.1177 54.7427 47.7198 54 47.7198H24C23.2573 47.7198 22.6552 47.1177 22.6552 46.3749Z" fill="#FEF9EF"/>
    <path fill-rule="evenodd" clip-rule="evenodd" d="M22.6552 55.8922C22.6552 55.1494 23.2573 54.5473 24 54.5473H54C54.7427 54.5473 55.3448 55.1494 55.3448 55.8922C55.3448 56.6349 54.7427 57.237 54 57.237H24C23.2573 57.237 22.6552 56.6349 22.6552 55.8922Z" fill="#FEF9EF"/>
    <path fill-rule="evenodd" clip-rule="evenodd" d="M22.6552 65.4094C22.6552 64.6667 23.2573 64.0646 24 64.0646H54C54.7427 64.0646 55.3448 64.6667 55.3448 65.4094C55.3448 66.1521 54.7427 66.7542 54 66.7542H24C23.2573 66.7542 22.6552 66.1521 22.6552 65.4094Z" fill="#FEF9EF"/>
    <path fill-rule="evenodd" clip-rule="evenodd" d="M59.6897 29.2025C59.6897 28.4598 60.2918 27.8577 61.0345 27.8577H67.2414C67.9841 27.8577 68.5862 28.4598 68.5862 29.2025C68.5862 29.9452 67.9841 30.5473 67.2414 30.5473H61.0345C60.2918 30.5473 59.6897 29.9452 59.6897 29.2025Z" fill="#FEF9EF"/>
    <path fill-rule="evenodd" clip-rule="evenodd" d="M7.75862 38.7198C7.75862 37.977 8.36072 37.3749 9.10345 37.3749L69.1034 37.3749C69.8462 37.3749 70.4483 37.977 70.4483 38.7198C70.4483 39.4625 69.8462 40.0646 69.1034 40.0646L9.10345 40.0646C8.36072 40.0646 7.75862 39.4625 7.75862 38.7198Z" fill="#FEF9EF"/>
</svg>