<svg width="65" height="65" viewBox="0 0 65 65" fill="none" xmlns="http://www.w3.org/2000/svg">
    <path d="M54.9048 64.9751L62.2866 63.7145C63.017 63.5898 63.5891 63.0177 63.7138 62.2873L64.9744 54.9054C65.0697 54.3471 64.8884 53.7773 64.4879 53.3769L39.0776 27.9663C38.3957 27.2845 37.2902 27.2845 36.6083 27.9663L27.9659 36.6088C27.2841 37.2906 27.2841 38.3962 27.9659 39.078L53.3763 64.4886C53.7767 64.889 54.3465 65.0704 54.9048 64.9751Z" fill="#FEF9EF"/>
    <path d="M10.0945 0.0249368L2.71269 1.28549C1.98232 1.41022 1.41021 1.98234 1.28549 2.71271L0.0249368 10.0946C-0.0703939 10.6529 0.110962 11.2227 0.511421 11.6231L25.9218 37.0337C26.6036 37.7155 27.7091 37.7155 28.391 37.0337L37.0334 28.3912C37.7153 27.7094 37.7153 26.6038 37.0334 25.922L11.6231 0.511425C11.2226 0.110964 10.6528 -0.0703943 10.0945 0.0249368Z" fill="#FEF9EF"/>
    <path d="M10.0952 64.9751L2.71338 63.7145C1.98301 63.5898 1.41089 63.0177 1.28617 62.2873L0.0256248 54.9054C-0.0697059 54.3471 0.11165 53.7773 0.512109 53.3769L25.9224 27.9663C26.6043 27.2845 27.7098 27.2845 28.3917 27.9663L37.0341 36.6088C37.7159 37.2906 37.7159 38.3962 37.0341 39.078L11.6237 64.4886C11.2233 64.889 10.6535 65.0704 10.0952 64.9751Z" fill="#FEF9EF"/>
    <path d="M54.9055 0.0249368L62.2873 1.28549C63.0177 1.41022 63.5898 1.98234 63.7145 2.71271L64.9751 10.0946C65.0704 10.6529 64.889 11.2227 64.4886 11.6231L39.0782 37.0337C38.3964 37.7155 37.2909 37.7155 36.609 37.0337L27.9666 28.3912C27.2847 27.7094 27.2847 26.6038 27.9666 25.922L53.3769 0.511425C53.7774 0.110964 54.3472 -0.0703943 54.9055 0.0249368Z" fill="#FEF9EF"/>
</svg>
